PathFileType	4	(X/Y/Z)	Walk8.trc
DataRate	CameraRate	NumFrames	NumMarkers	Units	OrigDataRate	OrigDataStartFrame	OrigNumFrames
200.000000	200.000000	4	59	mm	200.000000	251	526
Frame#	Times		LFHD		RFHD		RBHD		C7		T10		CLAV		STRN		RBack		LASI		RASI		RPSI		RACR1		RUA1		RElbow		RFA1		RWRR		RWRU		RCAR		LACR1		LUA1		LFA1		LWRR		LCAR		RTH1		RTH3		RTH2		RTH4		RLFC		LTH1		LTH3		LTH2		LTH4		LLFC		LTB1		LTB3		LTB2		LTB4		LMMAL		LMT1		LMT5		LToe		LLMAL		RTB1		LPSI		LElbow		RTB2		RTB4		LBHD		RMT1		RToe		RTB3		RElbowM		LCAL		LElbowM		LWRU		RLMAL		RCAL		RMT5		RMMAL
			X1	Y1	Z1	X2	Y2	Z2	X3	Y3	Z3	X4	Y4	Z4	X5	Y5	Z5	X6	Y6	Z6	X7	Y7	Z7	X8	Y8	Z8	X9	Y9	Z9	X10	Y10	Z10	X11	Y11	Z11	X12	Y12	Z12	X13	Y13	Z13	X14	Y14	Z14	X15	Y15	Z15	X16	Y16	Z16	X17	Y17	Z17	X18	Y18	Z18	X19	Y19	Z19	X20	Y20	Z20	X21	Y21	Z21	X22	Y22	Z22	X23	Y23	Z23	X24	Y24	Z24	X25	Y25	Z25	X26	Y26	Z26	X27	Y27	Z27	X28	Y28	Z28	X29	Y29	Z29	X30	Y30	Z30	X31	Y31	Z31	X32	Y32	Z32	X33	Y33	Z33	X34	Y34	Z34	X35	Y35	Z35	X36	Y36	Z36	X37	Y37	Z37	X38	Y38	Z38	X39	Y39	Z39	X40	Y40	Z40	X41	Y41	Z41	X42	Y42	Z42	X43	Y43	Z43	X44	Y44	Z44	X45	Y45	Z45	X46	Y46	Z46	X47	Y47	Z47	X48	Y48	Z48	X49	Y49	Z49	X50	Y50	Z50	X51	Y51	Z51	X52	Y52	Z52	X53	Y53	Z53	X54	Y54	Z54	X55	Y55	Z55	X56	Y56	Z56	X57	Y57	Z57	X58	Y58	Z58	X59	Y59	Z59

251	1.255	-376.51	1586.6	-89.309	-370.28	1591.3	-16.359	-538.06	1542	21.114	-532.42	1414.5	-52.324	-561.68	1131.3	-43.649	-405.44	1340.4	-54.885	-326.68	1115.2	-45.809	-573.84	1311.2	47.334	-373.24	939.23	-168.24	-381.43	938.33	93.699	-593.95	971.87	21.309	-457.09	1353.5	117.67	-472.13	1143.2	183.86	-488.34	1035.8	208.45	-403.66	905.05	208.08	-363.72	810.02	164.22	-411.48	792.15	217.75	-357.05	763.05	212.33	-466.15	1347.1	-224.72	-505.85	1140.9	-266.27	-509.19	898.51	-291.3	-510.64	779.07	-255.7	-525.7	736.13	-297.11	-462.85	732.54	133.13	-441.29	546.13	105.91	-386.56	653.55	94.107	-452.64	639.2	117.83	-445.18	453.01	92.948	-446.14	738.12	-210.17	-398.86	562.37	-168.56	-354.27	667.77	-160.28	-423.23	646.01	-188.8	-383.58	454.87	-153.13	-358.23	358.39	-69.901	-384.93	172.75	-65.197	-389.87	265.42	-140.69	-370.21	263.49	-71.139	-418.39	74.153	-29.773	-285.03	38.49	-67.417	-323.71	22.842	-145.74	-239.72	30.293	-95.598	-432.13	61.323	-110.18	-498.43	344.52	25.21	-591.03	973	-94.381	-539.44	1025.6	-273.99	-585.52	313.48	93.669	-578.45	297.69	24.025	-543.99	1545.3	-106.19	-714.89	75.112	16.162	-701.06	43.43	45.225	-657.47	249.7	23.009	-502.69	1013.5	126.03	-483.02	29.267	-57.771	-556.8	1015	-205.35	-563.25	787.9	-304.38	-771.26	220.9	69.974	-817.06	240.91	19.957	-762.23	90.636	83.274	-740.82	214.46	-5.3922
252	1.26	-370.63	1587.4	-89.336	-364.38	1592	-16.373	-532.2	1542.9	21.089	-526.69	1415.4	-52.425	-556.04	1132.2	-44.04	-399.79	1341.2	-55.027	-321.2	1115.9	-45.948	-568.22	1312	47.026	-368.24	939.88	-168.91	-376	939.32	93.906	-588.19	972.84	21.248	-451.52	1354.2	117.59	-467.5	1143.9	183.63	-484.12	1036.5	208.03	-400.67	905.06	208.04	-361.65	809.53	164.33	-409.57	792.26	217.94	-355.53	762.49	212.46	-460.37	1348.1	-224.84	-498.86	1141.6	-266.6	-500.45	899.18	-291.36	-501.43	779.77	-255.58	-515.81	736.69	-297.1	-455.94	733.81	133.21	-432.37	547.63	106.09	-378.6	655.59	94.74	-444.73	640.63	118	-434.41	454.87	93.176	-441.74	738.39	-210.19	-395.68	562.34	-168.63	-350.34	667.4	-160.38	-419.47	646.13	-188.83	-381.23	454.65	-153.15	-356.54	358.08	-69.905	-384.32	172.56	-65.179	-388.55	265.21	-140.74	-369.03	263.23	-71.127	-418.32	74.149	-29.767	-285.04	38.508	-67.473	-323.73	22.8	-145.8	-239.73	30.275	-95.751	-432.1	61.341	-110.18	-487.08	346.26	25.291	-585.54	973.79	-94.41	-531.68	1026.1	-274.5	-573.91	314.82	93.705	-566.8	299.12	24.037	-538.15	1546.2	-106.22	-700.9	76.374	17.681	-686.69	44.938	47.07	-645.65	250.84	23.011	-498.57	1014.3	125.6	-483.02	29.32	-57.72	-549.55	1015.4	-206.01	-553.63	788.22	-304.82	-759.3	221.64	69.92	-805.4	240.78	19.633	-748.45	92.143	84.525	-728.74	215.09	-5.4789
253	1.265	-364.77	1588.2	-89.341	-358.5	1592.7	-16.366	-526.34	1543.7	21.091	-520.97	1416.2	-52.512	-550.42	1133.1	-44.433	-394.15	1342	-55.162	-315.74	1116.6	-46.08	-562.62	1312.8	46.727	-363.24	940.51	-169.59	-370.6	940.29	94.146	-582.44	973.81	21.212	-445.97	1354.9	117.52	-462.85	1144.5	183.39	-479.89	1037.2	207.6	-397.69	905.08	208.01	-359.6	809.05	164.45	-407.67	792.39	218.14	-354.02	761.94	212.6	-454.63	1349.1	-224.94	-491.89	1142.3	-266.92	-491.66	899.86	-291.41	-492.15	780.51	-255.43	-505.82	737.29	-297.06	-449.1	735.1	133.31	-423.52	549.18	106.26	-370.71	657.67	95.396	-436.89	642.08	118.18	-423.72	456.77	93.382	-437.35	738.65	-210.16	-392.53	562.31	-168.66	-346.45	667.01	-160.43	-415.73	646.23	-188.82	-378.92	454.44	-153.12	-354.88	357.76	-69.867	-383.72	172.38	-65.14	-387.27	265.02	-140.76	-367.87	262.97	-71.085	-418.24	74.142	-29.745	-285.05	38.522	-67.521	-323.75	22.76	-145.85	-239.72	30.259	-95.88	-432.06	61.364	-110.16	-475.7	347.98	25.352	-580.05	974.57	-94.413	-523.92	1026.6	-275.02	-562.26	316.04	93.714	-555.07	300.44	24.031	-532.32	1547.2	-106.21	-686.55	77.391	19.235	-671.93	46.284	48.991	-633.68	251.77	22.986	-494.45	1015.1	125.21	-483.02	29.376	-57.66	-542.33	1015.9	-206.7	-543.91	788.56	-305.24	-747.16	222.04	69.82	-793.56	240.24	19.236	-734.37	93.366	85.795	-716.46	215.39	-5.6049
254	1.27	-358.91	1588.9	-89.326	-352.61	1593.4	-16.34	-520.48	1544.5	21.118	-515.28	1417.1	-52.588	-544.8	1133.9	-44.828	-388.53	1342.8	-55.29	-310.28	1117.3	-46.208	-557.03	1313.6	46.436	-358.24	941.13	-170.28	-365.21	941.25	94.411	-576.7	974.78	21.199	-440.43	1355.5	117.45	-458.19	1145.1	183.14	-475.65	1037.9	207.19	-394.71	905.11	207.97	-357.56	808.58	164.58	-405.8	792.53	218.36	-352.53	761.43	212.76	-448.93	1350	-225.05	-484.94	1143.1	-267.23	-482.82	900.58	-291.43	-482.78	781.27	-255.26	-495.72	737.93	-297.01	-442.31	736.39	133.43	-414.71	550.76	106.41	-362.88	659.79	96.072	-429.11	643.56	118.35	-413.13	458.72	93.568	-432.97	738.9	-210.1	-389.41	562.27	-168.64	-342.58	666.6	-160.43	-412.02	646.33	-188.76	-376.64	454.23	-153.05	-353.26	357.45	-69.79	-383.13	172.21	-65.08	-386.02	264.84	-140.74	-366.73	262.71	-71.014	-418.15	74.131	-29.708	-285.06	38.531	-67.562	-323.77	22.723	-145.9	-239.72	30.245	-95.988	-432.02	61.392	-110.13	-464.29	349.69	25.399	-574.56	975.33	-94.389	-516.16	1027.1	-275.54	-550.55	317.12	93.705	-543.27	301.63	24.018	-526.5	1548.1	-106.18	-671.87	78.165	20.811	-656.83	47.458	50.967	-621.57	252.47	22.943	-490.33	1015.9	124.85	-483.01	29.435	-57.592	-535.13	1016.4	-207.4	-534.1	788.91	-305.63	-734.86	222.1	69.688	-781.57	239.28	18.79	-720.03	94.303	87.073	-703.98	215.36	-5.7556
